<svg xmlns="http://www.w3.org/2000/svg" width="118" height="104" fill="none" viewBox="0 0 118 104">
  <path fill="#C9E4DE" d="M118 64.087c0 71.503-43.474 23.365-59.847 25.899C35.852 93.436 2.541 129.96 0 69.154 0 31.53 24.587 3 55.612 3 86.638 3 118 26.463 118 64.087Z"/>
  <circle cx="81.508" cy="12.508" r="4.501" fill="#fff" transform="rotate(-.102 81.508 12.508)"/>
  <circle cx="51.001" cy="18.001" r="4.992" fill="#fff" transform="rotate(-.102 51 18)"/>
  <circle cx="53.501" cy="16.501" r="2.496" fill="#000" transform="rotate(-.102 53.5 16.5)"/>
  <circle cx="83.501" cy="11.501" r="2.496" fill="#000" transform="rotate(-.102 83.5 11.5)"/>
  <path fill="#000" d="M75.277 30.436c-4.098.598-8.151-1.247-9.84-2.155-.313-.167-.24-.605.105-.684l17.212-3.918c.325-.074.58.25.413.54-.957 1.648-3.66 5.599-7.89 6.217ZM49.178 10.94c-7.628-1.112-5.826-.554-8.55-3.073-2.724-2.518-1.206-2.236 7.275.011.422.112.84.218 1.254.318 2.342.565 2.405 3.092.02 2.745ZM76.38 9.03c6.143-4.656 4.834-3.298 6.004-6.818 1.17-3.52-.024-2.54-6.366 3.52-.317.303-.632.597-.945.884-1.779 1.626-.614 3.87 1.306 2.414Z"/>
</svg>
