<svg xmlns="http://www.w3.org/2000/svg" width="143" height="103" fill="none" viewBox="0 0 143 103">
  <path fill="#F7D9C4" d="M111.2 17.571c-3.679-9.882-14.398-15.21-24.497-12.178L22.225 24.76A20 20 0 0 0 8.151 41.296L2.988 80.38C1.405 92.363 10.73 103 22.816 103h91.399c13.943 0 23.607-13.91 18.743-26.977L111.2 17.57Z"/>
  <circle cx="9.984" cy="9.984" r="9.984" fill="#fff" transform="matrix(-1 -.00177 -.00177 1 54.042 28.01)"/>
  <circle cx="9.79" cy="9.79" r="9.79" fill="#fff" transform="matrix(-1 -.00177 -.00177 1 87.566 22.008)"/>
  <circle cx="2.758" cy="2.758" r="2.758" fill="#000" transform="matrix(-1 -.00177 -.00177 1 77 33.01)"/>
  <circle cx="2.758" cy="2.758" r="2.758" fill="#000" transform="matrix(-1 -.00177 -.00177 1 42.038 40.01)"/>
  <path fill="#000" d="M56.486 50.851c-1.93.156-3.117-1.91-3.583-2.929-.129-.283.056-.594.363-.641l7.249-1.128c.406-.063.7.357.48.705-.849 1.353-2.654 3.844-4.509 3.993Z"/>
</svg>
