<svg xmlns="http://www.w3.org/2000/svg" width="145" height="108" fill="none" viewBox="0 0 145 108">
  <path fill="#F2C6DE" d="M45.642 19.64a22 22 0 0 1 22.773-8.045l54.292 13.37c11.603 2.858 18.803 14.455 16.218 26.122l-7.779 35.106c-2.629 11.863-14.376 19.348-26.239 16.719l-71.35-15.81c-15.673-3.473-22.47-22.018-12.754-34.795L45.642 19.64Z"/>
  <circle cx="9.984" cy="9.984" r="9.984" fill="#fff" transform="matrix(-1 -.00177 -.00177 1 76.39 33.708)"/>
  <ellipse cx="4.996" cy="5.409" fill="#000" rx="4.996" ry="5.409" transform="matrix(-1 -.00177 -.00177 1 70.398 39.69)"/>
  <circle cx="9.79" cy="9.79" r="9.79" fill="#fff" transform="matrix(-1 -.00177 -.00177 1 113.002 30.707)"/>
  <ellipse cx="4.996" cy="5.409" fill="#000" rx="4.996" ry="5.409" transform="matrix(-1 -.00177 -.00177 1 104.397 36.69)"/>
  <path fill="#000" d="M83.448 62.52a3 3 0 0 0 5.924-.952l-5.924.952Zm4.9-7.324-.475-2.962-5.924.952.475 2.962 5.924-.952Zm1.024 6.373-1.023-6.373-5.925.952 1.023 6.372 5.925-.952Z"/>
</svg>
